<svg xmlns="http://www.w3.org/2000/svg" xmlns:xlink="http://www.w3.org/1999/xlink" width="500" zoomAndPan="magnify" viewBox="0 0 375 374.999991" height="500" preserveAspectRatio="xMidYMid meet" version="1.0"><defs><g/></defs><g fill="#ffffff" fill-opacity="1"><g transform="translate(38.021479, 257.092834)"><g><path d="M 80.640625 -155.78125 L 150.5 -155.78125 C 150.5 -147.507812 149.269531 -138.816406 146.8125 -129.703125 C 144.363281 -120.585938 141.1875 -111.585938 137.28125 -102.703125 C 133.375 -93.816406 129.238281 -85.429688 124.875 -77.546875 C 120.507812 -69.660156 116.410156 -62.804688 112.578125 -56.984375 C 108.140625 -50.242188 104.425781 -43.195312 101.4375 -35.84375 C 98.457031 -28.488281 96.195312 -21.671875 94.65625 -15.390625 C 93.125 -9.109375 92.359375 -3.976562 92.359375 0 L 86.625 0 C 86.625 -7.8125 85.625 -13.9375 83.625 -18.375 C 81.632812 -22.820312 78.992188 -26.15625 75.703125 -28.375 C 72.410156 -30.59375 68.847656 -32.273438 65.015625 -33.421875 C 61.191406 -34.578125 57.363281 -35.691406 53.53125 -36.765625 C 49.707031 -37.835938 46.335938 -39.441406 43.421875 -41.578125 C 40.515625 -43.722656 38.296875 -46.941406 36.765625 -51.234375 C 32.015625 -65.941406 27.992188 -79.957031 24.703125 -93.28125 C 21.410156 -106.613281 17.460938 -118.640625 12.859375 -129.359375 C 10.109375 -135.941406 6.242188 -139.578125 1.265625 -140.265625 C -3.710938 -140.960938 -8.039062 -139.316406 -11.71875 -135.328125 L -15.625 -139.703125 C -11.175781 -146.128906 -5.625 -150.609375 1.03125 -153.140625 C 7.695312 -155.671875 14.015625 -156.9375 19.984375 -156.9375 C 22.898438 -156.9375 26.578125 -156.398438 31.015625 -155.328125 C 35.460938 -154.253906 40.132812 -152.257812 45.03125 -149.34375 C 49.9375 -146.4375 54.609375 -142.265625 59.046875 -136.828125 C 63.492188 -131.390625 67.171875 -124.226562 70.078125 -115.34375 C 71.910156 -109.976562 73.476562 -105.304688 74.78125 -101.328125 C 76.082031 -97.347656 77.382812 -93.363281 78.6875 -89.375 C 79.988281 -85.394531 81.484375 -80.492188 83.171875 -74.671875 C 85.316406 -67.628906 87.078125 -60.273438 88.453125 -52.609375 C 89.835938 -44.953125 90.835938 -36.453125 91.453125 -27.109375 C 94.515625 -36.296875 99.03125 -46.023438 105 -56.296875 C 109.75 -64.253906 112.582031 -72.984375 113.5 -82.484375 C 114.425781 -91.984375 113.738281 -101.476562 111.4375 -110.96875 C 109.132812 -120.46875 105.34375 -129.160156 100.0625 -137.046875 C 94.78125 -144.941406 88.304688 -151.1875 80.640625 -155.78125 Z M 80.640625 -155.78125 "/></g></g></g><g fill="#ffffff" fill-opacity="1"><g transform="translate(186.912054, 257.092834)"><g><path d="M 71 1.609375 C 66.863281 1.609375 62.800781 1.453125 58.8125 1.140625 C 54.832031 0.835938 51.003906 0.457031 47.328125 0 L 5.28125 0 L 5.28125 -107.53125 C 5.28125 -117.488281 7.003906 -125.679688 10.453125 -132.109375 C 13.898438 -138.546875 18.34375 -143.601562 23.78125 -147.28125 C 29.21875 -150.957031 35.078125 -153.5625 41.359375 -155.09375 C 47.640625 -156.625 53.613281 -157.390625 59.28125 -157.390625 C 73.675781 -157.390625 86.503906 -155.816406 97.765625 -152.671875 C 109.023438 -149.535156 117.910156 -144.90625 124.421875 -138.78125 C 130.929688 -132.65625 134.1875 -125.070312 134.1875 -116.03125 C 134.1875 -106.53125 130.582031 -98.71875 123.375 -92.59375 C 116.175781 -86.46875 106.453125 -82.023438 94.203125 -79.265625 C 109.671875 -77.273438 122.15625 -73.175781 131.65625 -66.96875 C 141.15625 -60.769531 145.90625 -52.234375 145.90625 -41.359375 C 145.90625 -32.472656 142.648438 -24.8125 136.140625 -18.375 C 129.628906 -11.945312 120.742188 -7.007812 109.484375 -3.5625 C 98.222656 -0.113281 85.394531 1.609375 71 1.609375 Z M 58.359375 -80.1875 C 66.785156 -80.34375 73.488281 -82.21875 78.46875 -85.8125 C 83.445312 -89.414062 85.859375 -94.507812 85.703125 -101.09375 C 85.546875 -107.6875 81.945312 -115.347656 74.90625 -124.078125 C 69.695312 -130.816406 63.566406 -135.789062 56.515625 -139 C 49.472656 -142.21875 42.890625 -143.828125 36.765625 -143.828125 C 31.710938 -143.828125 28 -142.945312 25.625 -141.1875 C 23.25 -139.425781 21.867188 -137.394531 21.484375 -135.09375 C 21.097656 -132.800781 21.289062 -130.660156 22.0625 -128.671875 C 23.28125 -125.910156 25.15625 -123.648438 27.6875 -121.890625 C 30.21875 -120.128906 33.085938 -118.367188 36.296875 -116.609375 C 39.515625 -114.847656 42.578125 -112.816406 45.484375 -110.515625 C 48.398438 -108.222656 50.816406 -105.195312 52.734375 -101.4375 C 54.648438 -97.6875 55.609375 -92.820312 55.609375 -86.84375 L 55.609375 -20.90625 C 69.085938 -5.28125 81.644531 -0.609375 93.28125 -6.890625 C 96.195312 -8.578125 98.265625 -11.679688 99.484375 -16.203125 C 100.710938 -20.722656 100.828125 -26.082031 99.828125 -32.28125 C 98.835938 -38.488281 96.347656 -44.804688 92.359375 -51.234375 C 87.148438 -59.503906 81.554688 -65.554688 75.578125 -69.390625 C 69.609375 -73.222656 63.867188 -75.140625 58.359375 -75.140625 Z M 58.359375 -80.1875 "/></g></g></g></svg>